<svg width="176.864" height="147.212" xmlns="http://www.w3.org/2000/svg">
 <defs>
  <clipPath id="clip-path">
   <circle id="Ellipse_2" cx="108.662" cy="128.71912" r="9.825" fill="#0d8e53"/>
  </clipPath>
  <clipPath id="clip-path-2">
   <path id="Path_56" d="m69.13289,7.9729s10.56605,-4.25781 15.48999,4.12524s-6.78698,26.87988 1.86304,32.46899s7.98399,12.64185 5.18995,21.4248s11.44408,14.37207 15.70007,25.41699s-8.11804,30.07397 -55.89003,29.14307s-45.51099,-24.48486 -39.25598,-31.27197s-0.40002,-17.01709 4.92395,-25.54199s11.44397,-17.24194 9.84705,-25.85791s2.10791,-25.11914 13.95093,-29.24512s16.81909,-16.49805 28.18103,-0.66211l0,0.00001z" fill="#076855"/>
  </clipPath>
  <clipPath id="clip-path-3">
   <path id="Path_59" d="m100.86102,98.78394s9.12891,11.03711 16.73706,14.14307s35.77393,2.77393 39.70802,2.09497s8.89989,-4.29199 14.81688,0.12012s7.00002,13.67188 -0.81689,14.30566a27.09,27.09 0 0 1 -14.08105,-2.89989s-38.67088,3.48707 -47.75708,-0.37598c-6.70605,-2.85083 -17.854,-16.71997 -17.854,-16.71997l9.24708,-10.66797l-0.00002,0z" fill="#f4c990"/>
  </clipPath>
  <clipPath id="clip-path-4">
   <path id="Path_62" d="m72.055,71.80005c3.5,-1.4187 4.7771,-2.30688 13.18604,2.48413s26.86206,27.5 26.86206,27.5s-2.12915,16.30591 -17.0332,17.46802l-13.83887,-14.56592l-9.17603,-32.88623z" fill="#74dab3"/>
  </clipPath>
  <clipPath id="clip-path-5">
   <path id="Path_67" d="m47.87392,66.479l-2.27295,-0.46703s-18.31006,2.32909 -22.745,12.9751c-3.12207,7.49292 6.97192,48.64281 6.97192,48.64281s1.90002,7.56714 4.02808,16.45631c0,0 22.69995,5.11499 46.12793,-1.16017c0,0 3.20007,-15.15795 5.68102,-26.24097s2.30605,-16.40601 -0.88696,-26.875s-3.76208,-17.38818 -6.76,-19.16212s-14.48304,-3.46801 -14.48304,-3.46801l-15.66101,-0.70093l0.00001,0.00001z" fill="#74dab3"/>
  </clipPath>
  <clipPath id="clip-path-6">
   <path id="Path_70" d="m39.188,86.96411c-0.552,-8.48315 -5.64795,-13.56201 -9.18701,-14.3772c-5.15393,-1.18604 -11.93396,10.24512 -14.53101,17.22218s-8.85498,22.83789 -8.85498,22.83789a14.819,14.819 0 0 0 2.15295,3.26099c3.87903,4.47192 9.92407,6.21118 14.16199,6.88721a33.561,33.561 0 0 0 4.58301,0.42577c0.20007,0 0.31104,0 0.31104,0a204.909,204.909 0 0 0 10.17102,-26.66382a27.449,27.449 0 0 0 1.19299,-9.59302z" fill="#74dab3"/>
  </clipPath>
  <clipPath id="clip-path-7">
   <path id="Path_74" d="m79.94099,26.94995s1.30006,18.93604 -3.43407,28.45825s-10.4458,9.95801 -18.81396,6.49976c-8.03784,-3.32397 -12.09106,-8.16187 -13.69995,-16.26685c0,0 -5.36401,-1.28711 -5.23901,-8.53906s5.94409,-5.63306 7.18701,-4.01709c0,0 1.5,-10.06104 5.854,-10.7439s20.12793,9.27393 28.14599,4.60889z" fill="#f4c990"/>
  </clipPath>
  <clipPath id="clip-path-8">
   <path id="Path_78" d="m63.44192,38.67318a5.326,5.326 0 0 0 -5.60791,-4.30005a4.372,4.372 0 0 0 -4.0061,5.14185c0.5,2.57104 1.71411,3.40918 5.36499,3.31616s4.88208,-1.73608 4.24902,-4.15796z" fill="#fff"/>
  </clipPath>
  <clipPath id="clip-path-9">
   <path id="Path_81" d="m78.52299,38.63817a4.849,4.849 0 0 0 -5.10497,-3.91821a3.981,3.981 0 0 0 -3.64697,4.68213c0.45801,2.34106 1.56006,3.1001 4.88501,3.01904s4.44287,-1.57813 3.86694,-3.78296l-0.00002,0z" fill="#fff"/>
  </clipPath>
  <clipPath id="clip-path-10">
   <path id="Path_88" d="m56.62696,53.41626c-0.32007,-1.43604 1.71289,-3.28198 5.6001,-2.40015s4.83595,-0.11792 6.43286,0.65112s1.01099,3.34302 -2.21802,3.2229s-9.25195,1.05298 -9.81494,-1.47388l0,0.00001z" fill="#682d0c"/>
  </clipPath>
  <clipPath id="clip-path-11">
   <path id="Path_93" d="m79.1791,137.05809c-2.67505,0.89185 -35.40002,11.91016 -36.39502,9.91406c-0.54297,-1.08594 -1.78699,-3.86914 -3.42395,-7.61499c-1.73901,-3.979 -3.92297,-9.04517 -6.18201,-14.3169l-0.729,-1.7002c-5.88599,-13.7478 -12.021,-28.2561 -12.021,-28.2561s12.71204,-4.49976 23.69995,-8c7.82104,-2.4939 14.76599,-4.48389 15.625,-3.98486c0.99402,0.57715 5.76099,13.01416 10.328,25.7998c1.745,4.8833 3.46106,9.81836 4.92407,14.16333c2.66991,7.92384 4.50891,13.88477 4.17395,13.99586l0.00001,0z" fill="#2da876"/>
  </clipPath>
  <clipPath id="clip-path-12">
   <path id="Path_97" d="m79.98302,116.68408c-1.521,2.05518 -4.17799,4.0349 -9.91798,6.26001a204.039,204.039 0 0 0 -27.427,12.19995q-4.34497,2.38501 -8.21399,4.1001c-16.84705,7.48096 -26.91406,5.79199 -30.37598,-0.90015c-2.84412,-5.5 1.80896,-16.5359 4.71997,-22.42896c3.87903,4.47192 9.92395,6.21118 14.16199,6.88696l-1.60803,4.2832s2.80701,-0.87012 6.92004,-2.15723c10.57898,-3.31201 29.79993,-9.38794 32.09998,-10.53784c1.375,-0.68823 3,-3.0061 4.79992,-5.6001c2.38612,-3.43092 3.77406,-5.8999 6.91309,-6.19995c7.39989,-0.71606 10.68188,10.375 7.92798,14.09399l0.00001,0.00002z" fill="#f4c990"/>
  </clipPath>
 </defs>
 <g>
  <title>background</title>
  <rect x="-1" y="-1" width="178.864" height="149.212" id="canvas_background" fill="none"/>
 </g>
 <g>
  <title>Layer 1</title>
  <g id="Group_570">
   <g id="Group_6" opacity="0.61">
    <path id="Path_3" d="m0.11804,50.02698c1.26099,-9.86694 10.23901,-23.01514 21.94202,-24.23511s22.32593,2.6001 10.50696,14.57813s-13.88293,27.65283 -23.04797,23.46899s-9.90308,-9.88013 -9.401,-13.81201l-0.00001,0z" fill="#fefefe"/>
   </g>
   <g id="Group_7" opacity="0.61">
    <path id="Path_4" d="m31.50098,134.96307c-13.69995,-8.18701 -27.25195,-16.82813 -27.83496,-37.71411s28.72791,-23.07813 52.64392,-36.90015s38.552,-27.89282 54.76208,-8.77783s6.354,47.45996 -5.7511,61.32202s-26.23999,50.50806 -73.81994,22.07008z" fill="#fefefe"/>
   </g>
   <g id="Group_26">
    <g id="Group_24">
     <g id="Group_11">
      <circle id="Ellipse_1" cx="108.662" cy="128.71912" r="9.825" fill="#ff5656"/>
      <g id="Group_10" clip-path="url(#clip-path)">
       <g id="Group_9" opacity="0.44">
        <path id="Path_5" d="m97.98877,130.64783s7.5,3.22949 12.58398,0.4673s6.58595,-9.97803 6.58595,-9.97803l3.46313,7.84081l-4.62305,9.56935s-7.31494,3.11768 -7.90503,3.39989s-11.13989,-4.39989 -11.13989,-4.39989l1.03491,-6.89941l0.00001,-0.00002z" fill="#ff5656"/>
       </g>
      </g>
     </g>
     <g id="Group_12">
      <path id="Path_6" d="m102.86401,121.06311a12.454,12.454 0 0 0 -1.37695,-2.11621c-0.51709,-0.49365 -1.76904,0.81006 -2.23096,0.2002s0.7998,-1.64502 2.18799,-2.41699s2.3208,-0.76172 1.92798,0.16113s-1.20605,0.7998 -0.72314,1.66602s1.146,1.78711 1.146,1.78711s-0.07104,0.56593 -0.93091,0.71875l-0.00001,-0.00001z" fill="#ff5656"/>
     </g>
     <g id="Group_13">
      <path id="Path_7" d="m107.85107,119.28821a7.961,7.961 0 0 0 -0.06396,-1.60986c-0.12207,-0.44043 -1.23511,-0.13428 -1.28906,-0.62012s0.97705,-0.64014 1.98901,-0.61133s1.52197,0.34033 1.00513,0.71826s-0.92212,0.04395 -0.94115,0.67676s0.04491,1.35498 0.04491,1.35498s-0.2229,0.28809 -0.74487,0.09131l-0.00002,0z" fill="#ff5656"/>
     </g>
     <g id="Group_14">
      <path id="Path_8" d="m112.69507,120.04431a10.738,10.738 0 0 0 0.8811,-1.99121c0.11401,-0.60596 -1.41699,-0.8999 -1.19312,-1.52002s1.56689,-0.19385 2.7771,0.44531s1.64282,1.31982 0.79102,1.46973s-1.14502,-0.5 -1.54517,0.26123a18.273,18.273 0 0 0 -0.75195,1.66895s-0.44287,0.21582 -0.95898,-0.33398l0,-0.00001z" fill="#ff5656"/>
     </g>
     <g id="Group_15">
      <path id="Path_9" d="m116.00098,123.48877a7.991,7.991 0 0 0 1.33105,-0.9248c0.30688,-0.34082 -0.55396,-1.11865 -0.17017,-1.42773s1.07104,0.48193 1.59303,1.35693s0.53418,1.47412 -0.06593,1.23975s-0.53589,-0.7578 -1.08301,-0.43114a13.6,13.6 0 0 0 -1.12402,0.77051s-0.36597,-0.03418 -0.48096,-0.5835l0.00001,-0.00001z" fill="#ff5656"/>
     </g>
     <g id="Group_16">
      <path id="Path_10" d="m118.16016,127.64905a10.87,10.87 0 0 0 2.19995,0.01416c0.60815,-0.13916 0.26001,-1.67725 0.927,-1.72021s0.81299,1.37402 0.70898,2.75391s-0.56007,2.05615 -1.04298,1.32715s0,-1.26221 -0.86597,-1.32617s-1.85205,-0.02295 -1.85205,-0.02295s-0.37598,-0.32617 -0.07495,-1.02588l0.00001,-0.00002z" fill="#ff5656"/>
     </g>
     <g id="Group_17">
      <path id="Path_11" d="m117.08716,132.92297a7.967,7.967 0 0 0 1.51904,0.55518c0.45483,0.05371 0.59985,-1.09424 1.06689,-0.95947s0.22095,1.15137 -0.19189,2.0791s-0.90015,1.28223 -1.05005,0.65918s0.31104,-0.87305 -0.27002,-1.13184a13.594,13.594 0 0 0 -1.27393,-0.4751s-0.18213,-0.31787 0.19995,-0.72705l0.00001,0z" fill="#ff5656"/>
     </g>
     <g id="Group_18">
      <path id="Path_12" d="m114.06885,136.375a10.842,10.842 0 0 0 1.25806,1.80029c0.46289,0.41504 1.51392,-0.75537 1.93384,-0.23828s-0.64893,1.45264 -1.83081,2.16504s-2,0.729 -1.68115,-0.08398s1.02417,-0.729 0.58009,-1.46875s-1.0481,-1.52051 -1.0481,-1.52051s0.04419,-0.49561 0.78809,-0.65381l-0.00002,0z" fill="#ff5656"/>
     </g>
     <g id="Group_19">
      <path id="Path_13" d="m109.28003,137.94751a7.366,7.366 0 0 0 0.08496,1.5c0.12012,0.40674 1.14893,0.10449 1.20703,0.55566s-0.8999,0.61035 -1.83887,0.6001s-1.41919,-0.29297 -0.94507,-0.65186s0.85596,-0.05519 0.86401,-0.64404a12.59,12.59 0 0 0 -0.06299,-1.2583s0.20287,-0.27686 0.69092,-0.10156l0.00001,0z" fill="#ff5656"/>
     </g>
     <g id="Group_20">
      <path id="Path_14" d="m104.57593,137.40747a11.948,11.948 0 0 0 -1.01709,2.19971c-0.13794,0.67139 1.55811,1.02393 1.30005,1.70996s-1.7439,0.18701 -3.0769,-0.5459s-1.80005,-1.5 -0.85107,-1.64795s1.26196,0.57275 1.72095,-0.26074s0.86719,-1.84131 0.86719,-1.84131s0.4939,-0.23486 1.05688,0.38623l-0.00002,0z" fill="#ff5656"/>
     </g>
     <g id="Group_21">
      <path id="Path_15" d="m101.16602,134.32385a8.08,8.08 0 0 0 -1.34399,0.93652c-0.31006,0.34473 0.56104,1.13086 0.17407,1.44287s-1.08301,-0.48634 -1.61206,-1.37013s-0.54102,-1.48975 0.06494,-1.25391s0.54198,0.76611 1.09497,0.43506s1.13501,-0.78027 1.13501,-0.78027s0.37012,0.03517 0.48706,0.58984l0,0.00002z" fill="#ff5656"/>
     </g>
     <g id="Group_22">
      <path id="Path_16" d="m99.01685,130.32617a11.135,11.135 0 0 0 -2.25806,0.04004c-0.61987,0.15674 -0.22583,1.72461 -0.90894,1.78564s-0.86694,-1.38771 -0.79395,-2.80566s0.52393,-2.12109 1.03784,-1.38525s0.0332,1.29297 0.92017,1.33887s1.8999,-0.02051 1.8999,-0.02051s0.39209,0.3208 0.10303,1.04689l0.00002,-0.00002z" fill="#ff5656"/>
     </g>
     <g id="Group_23">
      <path id="Path_17" d="m100.92285,125.1394a11.139,11.139 0 0 0 -2.11792,-0.78223c-0.63403,-0.07813 -0.83618,1.52588 -1.49512,1.33398s-0.30005,-1.60791 0.27808,-2.89989s1.25903,-1.78613 1.46997,-0.91406s-0.43799,1.2168 0.37109,1.58203s1.77686,0.66895 1.77686,0.66895s0.25415,0.44092 -0.28296,1.01122z" fill="#ff5656"/>
     </g>
    </g>
   </g>
   <g id="Group_35">
    <g id="Group_27" opacity="0.5">
     <circle id="Ellipse_3" cx="102.097" cy="129.36407" r="1.671" fill="#bf0000"/>
    </g>
    <g id="Group_28" opacity="0.5">
     <circle id="Ellipse_4" cx="110.496" cy="134.22607" r="1.671" fill="#bf0000"/>
    </g>
    <g id="Group_29" opacity="0.5">
     <circle id="Ellipse_5" cx="109.525" cy="121.86107" r="0.989" fill="#bf0000"/>
    </g>
    <g id="Group_30" opacity="0.5">
     <circle id="Ellipse_6" cx="105.88" cy="134.29907" r="0.989" fill="#bf0000"/>
    </g>
    <g id="Group_31" opacity="0.5">
     <circle id="Ellipse_7" cx="115.245" cy="130.64807" r="1.671" fill="#bf0000"/>
    </g>
    <g id="Group_32" opacity="0.5">
     <circle id="Ellipse_8" cx="109.724" cy="128.28307" r="2.744" fill="#bf0000"/>
    </g>
    <g id="Group_33" opacity="0.5">
     <circle id="Ellipse_9" cx="104.864" cy="124.08307" r="2.613" fill="#bf0000"/>
    </g>
    <g id="Group_34" opacity="0.5">
     <circle id="Ellipse_10" cx="114.194" cy="125.11907" r="1.245" fill="#bf0000"/>
    </g>
   </g>
   <g id="Group_63">
    <g id="Group_55" opacity="0.5">
     <circle id="Ellipse_13" cx="107.661" cy="23.86404" r="1.22" fill="#fffefd"/>
    </g>
    <g id="Group_56" opacity="0.5">
     <circle id="Ellipse_14" cx="113.792" cy="27.41304" r="1.22" fill="#fffefd"/>
    </g>
    <g id="Group_57" opacity="0.5">
     <circle id="Ellipse_15" cx="113.083" cy="18.38704" r="0.722" fill="#fffefd"/>
    </g>
    <g id="Group_58" opacity="0.5">
     <circle id="Ellipse_16" cx="110.422" cy="27.46604" r="0.722" fill="#fffefd"/>
    </g>
    <g id="Group_59" opacity="0.5">
     <circle id="Ellipse_17" cx="117.259" cy="24.80104" r="1.22" fill="#fffefd"/>
    </g>
    <g id="Group_60" opacity="0.5">
     <circle id="Ellipse_18" cx="113.228" cy="23.07504" r="2.003" fill="#fffefd"/>
    </g>
    <g id="Group_61" opacity="0.5">
     <circle id="Ellipse_19" cx="109.68" cy="20.00904" r="1.907" fill="#fffefd"/>
    </g>
    <g id="Group_62" opacity="0.5">
     <circle id="Ellipse_20" cx="116.491" cy="20.76504" r="0.909" fill="#fffefd"/>
    </g>
   </g>
   <g id="Group_78">
    <path id="Path_54" d="m69.13293,7.97308s10.56604,-4.25806 15.48999,4.125s-6.78699,26.87988 1.86304,32.46899s7.98401,12.64209 5.18994,21.4248s11.44408,14.37207 15.70007,25.41699s-8.11804,30.07422 -55.89001,29.14307s-45.51099,-24.48486 -39.25598,-31.27197s-0.40002,-17.01709 4.92395,-25.54199s11.44397,-17.24194 9.84705,-25.85791s2.10791,-25.1189 13.95092,-29.24512s16.81909,-16.49805 28.18104,-0.66187l-0.00002,0.00001z" fill="#4c4c4c"/>
    <g id="Group_77" clip-path="url(#clip-path-2)">
     <g id="Group_76">
      <path id="Path_55" d="m29.11694,124.64612a29.989,29.989 0 0 1 -0.229,-27.34595c7.27405,-14.94312 5.61499,-18.979 6,-28.40503s5.64697,-10.04712 4.34705,-17.854s-3.91699,-15.53003 0.38599,-19.23096s5.18994,-8.93506 8.73792,-11.90698s27.6001,3.59277 30.85803,-0.17725s1.96704,6.20996 2.188,9.84717s-2.75,15.70703 0.97607,22.89087s-0.97607,16.854 1.15295,21.37817s20.5,54.05981 8.60498,60.93994s-63.02393,-10.13403 -63.02393,-10.13403" fill="#4c4c4c"/>
     </g>
    </g>
   </g>
   <g id="Group_81">
    <path id="Path_57" d="m100.86084,98.78394s9.12891,11.03711 16.73706,14.14307s35.77393,2.77393 39.70801,2.09473s8.8999,-4.29199 14.81689,0.12012s7,13.67188 -0.81689,14.30615a27.09,27.09 0 0 1 -14.08105,-2.8999s-38.67089,3.48682 -47.75707,-0.37598c-6.70605,-2.85107 -17.854,-16.72021 -17.854,-16.72021l9.24707,-10.66797l-0.00001,-0.00001z" fill="#f4c990"/>
    <g id="Group_80" clip-path="url(#clip-path-3)">
     <g id="Group_79">
      <path id="Path_58" d="m106.06885,112.78503s-2.04004,5.2588 3.99194,8.43994s47.16211,5.32666 47.16211,5.32666s20.96997,-0.19385 17.15601,-6.39989l4.69995,-0.08887l4.52393,10.55714l-20.937,2.57274l-5.2339,-4.16895l-42.31713,4.16895s-14.8999,-7.00878 -14.8999,-7.36279s-3.72607,-8.07324 -3.72607,-8.07324l9.58009,-4.97168l-0.00002,0z" fill="#f4b07d"/>
     </g>
    </g>
   </g>
   <g id="Group_84">
    <path id="Path_60" d="m72.05493,71.80042c3.5,-1.41895 4.7771,-2.30713 13.18604,2.48389s26.86206,27.5 26.86206,27.5s-2.12915,16.30615 -17.0332,17.46777l-13.83887,-14.56593l-9.17603,-32.88573z" fill="#007fff"/>
    <g id="Group_83" clip-path="url(#clip-path-4)">
     <g id="Group_82" opacity="0.38">
      <path id="Path_61" d="m84.36401,68.49316c0.44604,-0.04395 8.84911,11.3291 10.31299,26.55714s17.16602,19.19189 17.16602,19.19189s-13.41698,7.19971 -13.73999,7.07178s-11.17699,-4.0459 -11.12793,-4.41309s-14.58813,-21.7998 -14.58813,-22s1.71899,-23.146 1.71899,-23.146s3.60011,-2.33301 3.80006,-2.33301s6.45801,-0.92871 6.45801,-0.92871l-0.00001,0.00001z" fill="#2baa73"/>
     </g>
    </g>
   </g>
   <g id="Group_90">
    <path id="Path_63" d="m47.8739,66.47876l-2.27295,-0.4668s-18.31006,2.32909 -22.745,12.9751c-3.12207,7.49316 6.97192,48.64307 6.97192,48.64307s1.90002,7.56689 4.02808,16.45605c0,0 22.69995,5.11475 46.12793,-1.16016c0,0 3.20007,-15.1582 5.68103,-26.24122s2.30603,-16.40575 -0.88696,-26.8745s-3.76208,-17.38818 -6.76001,-19.16211s-14.48303,-3.46826 -14.48303,-3.46826l-15.66101,-0.70117z" fill="#0d47a1"/>
    <g id="Group_89" clip-path="url(#clip-path-5)">
     <g id="Group_85">
      <path id="Path_64" d="m41.44092,66.00989l1.6001,9.78223l3.41797,-0.93213a36.639,36.639 0 0 1 -0.50513,3.7412c3.03516,2.81201 13,5.88477 13.04102,5.73682c0.05103,-0.19971 -2.3999,-5.35303 -2.3999,-5.35303l-2.64404,-10.646s-6.03101,-4.37402 -6.07593,-4.44873s-6.43408,2.11963 -6.43408,2.11963l-0.00001,0z" fill="#0d47a1"/>
     </g>
     <g id="Group_86">
      <path id="Path_65" d="m56.59277,76.72302l0,2.26172l2.3999,5.35254l6.53516,-6.74219l-0.82813,-4.49512l2.51611,0.3833l0.24194,-6.4751l-3.92188,-1.3999l-6.94312,11.11475l0.00002,0z" fill="#0d47a1"/>
     </g>
     <g id="Group_88">
      <g id="Group_87">
       <path id="Path_66" d="m64.25,148.91589a0.49,0.49 0 0 1 -0.05298,0a0.434,0.434 0 0 1 -0.37891,-0.48389c2.74194,-22.48682 0.53491,-40.12208 -1.80005,-50.95605c-2.52612,-11.72119 -5.729,-18.2002 -5.76196,-18.26074a0.435,0.435 0 0 1 -0.04199,-0.25195l0.56592,-4.25829a0.434,0.434 0 1 1 0.86108,0.11523l-0.54907,4.12891a88.226,88.226 0 0 1 5.77393,18.34375a140.36301,140.36301 0 0 1 2.87207,21.90039a168.145,168.145 0 0 1 -1.06006,29.34375a0.435,0.435 0 0 1 -0.42798,0.37891z" fill="#0d47a1"/>
      </g>
     </g>
    </g>
   </g>
   <g id="Group_93">
    <path id="Path_68" d="m39.18799,86.96423c-0.552,-8.48341 -5.64795,-13.5625 -9.18701,-14.37695c-5.15393,-1.18652 -11.93396,10.24463 -14.53101,17.22168s-8.85498,22.83789 -8.85498,22.83789a14.819,14.819 0 0 0 2.15295,3.26123c3.87903,4.47217 9.92407,6.21094 14.16199,6.88721a33.561,33.561 0 0 0 4.58301,0.42578c0.20007,0 0.31104,0 0.31104,0a204.909,204.909 0 0 0 10.17102,-26.66406a27.449,27.449 0 0 0 1.19299,-9.59277l0,-0.00001z" fill="#007fff"/>
    <g id="Group_92" clip-path="url(#clip-path-6)">
     <g id="Group_91" opacity="0.38">
      <path id="Path_69" d="m36.10693,76.72412a36.029,36.029 0 0 1 -0.62097,17.83203c-2.83899,9.58105 -15.80603,28.56592 -24.58105,27.94482l4.70898,5.146l14.54907,2.21777l11.79993,-7.81495s1.95203,-17.5 2.12903,-18.36963s2.03406,-14.39989 2.03406,-14.39989l-10.01904,-12.55615l-0.00001,0z" fill="#38ad7d"/>
     </g>
    </g>
   </g>
   <g id="Group_94">
    <path id="Path_71" d="m50.0459,53.21411s-0.47095,11.04492 -3.19995,13.05298l9.74292,12.71899l6.94092,-11.80713s-1.77783,-6.96973 -0.47998,-10.21191l-13.00391,-3.75293z" fill="#ff9f69"/>
   </g>
   <g id="Group_100">
    <path id="Path_72" d="m79.94092,26.9502s1.30005,18.93579 -3.43407,28.45776s-10.4458,9.95801 -18.81396,6.50024c-8.03784,-3.32422 -12.09106,-8.16211 -13.69995,-16.26709c0,0 -5.36401,-1.28711 -5.23901,-8.53906s5.94409,-5.63306 7.18701,-4.01685c0,0 1.5,-10.06128 5.854,-10.74414s20.12793,9.27393 28.146,4.60913l-0.00002,0.00001z" fill="#f4c990"/>
    <g id="Group_99" clip-path="url(#clip-path-7)">
     <g id="Group_95">
      <circle id="Ellipse_23" cx="49.888" cy="49.69906" r="7.272" fill="#fca95e"/>
     </g>
     <g id="Group_96">
      <circle id="Ellipse_24" cx="80.849" cy="48.85706" r="7.272" fill="#fca95e"/>
     </g>
     <g id="Group_97">
      <ellipse id="Ellipse_25" cx="59.79065" cy="53.45782" rx="0.508" ry="4.581" transform="matrix(0.986 -0.168 0.168 0.986 0 0.17)" fill="#ed9569"/>
     </g>
     <g id="Group_98">
      <path id="Path_73" d="m38.11597,36.3761c0.33301,-0.30811 1.26489,-3.27905 4.39209,-1.65991s4.68091,1.89087 5.36792,-2.53711s2.11694,-9.01904 5.69409,-8.021s20.80884,8.25 27.32983,0.06689l-0.3999,-3.65991l-33.18506,0.354l-9.86401,12.22095l0.66504,3.23608l0,0.00001z" fill="#ffaf73"/>
     </g>
    </g>
   </g>
   <g id="Group_101">
    <path id="Path_75" d="m58.354,29.97504c2.88892,0.17603 5.75806,1.83594 3.30005,1.83398s-8.89111,-0.25098 -7.77612,-1.10889s2.86597,-0.82324 4.47607,-0.7251l0,0.00001z" fill="#032d26"/>
   </g>
   <g id="Group_102">
    <path id="Path_76" d="m73.65771,30.40509c2.89307,-0.09985 5.90601,1.28101 3.46411,1.51221s-8.875,0.59399 -7.84619,-0.36523s2.77417,-1.09106 4.38208,-1.14697l0,-0.00001z" fill="#032d26"/>
   </g>
   <g id="Group_108">
    <g id="Group_105">
     <path id="Path_77" d="m63.44165,38.67303a5.326,5.326 0 0 0 -5.60791,-4.30005a4.372,4.372 0 0 0 -4.0061,5.14209c0.5,2.57104 1.71411,3.40894 5.36499,3.31592s4.88208,-1.73584 4.24902,-4.15796z" fill="#fff"/>
     <g id="Group_104" clip-path="url(#clip-path-8)">
      <g id="Group_103">
       <ellipse id="Ellipse_26" cx="56.688" cy="39.01105" rx="2.757" ry="3.215" transform="rotate(-7.930000305175781 56.6879997253418,39.01104712486267)" fill="#0b473c"/>
      </g>
     </g>
    </g>
    <g id="Group_106">
     <path id="Path_79" d="m62.53296,36.25006a5.359,5.359 0 0 0 -5.82202,-2.375a4.437,4.437 0 0 0 -3.54004,4.50806c-0.02783,1.30005 0.03711,1.86304 0.55908,1.84399s0.07397,-1.08105 0.5,-2.65503a3.688,3.688 0 0 1 2.83203,-3.05493a4.11,4.11 0 0 1 4.19995,1.08691c1.323,1.24805 1.552,2.89111 2.19995,2.91113c0.30811,0.00977 -0.40088,-1.53809 -0.92896,-2.26514l0.00001,0.00001z" fill="#032d26"/>
    </g>
    <g id="Group_107">
     <ellipse id="Ellipse_27" cx="58.319" cy="38.27805" rx="0.699" ry="0.908" transform="rotate(-15.845999717712402 58.31899893283844,38.27804470062256)" fill="#076855"/>
    </g>
   </g>
   <g id="Group_114">
    <g id="Group_111">
     <path id="Path_80" d="m78.52271,38.638a4.849,4.849 0 0 0 -5.10498,-3.91797a3.981,3.981 0 0 0 -3.64697,4.68188c0.45801,2.34106 1.56006,3.1001 4.88501,3.01904s4.44287,-1.57788 3.86694,-3.78296l0,0.00001z" fill="#fff"/>
     <g id="Group_110" clip-path="url(#clip-path-9)">
      <g id="Group_109">
       <ellipse id="Ellipse_28" cx="72.374" cy="38.94603" rx="2.51" ry="2.927" transform="rotate(-7.93 69.864 36.019)" fill="#0b473c"/>
      </g>
     </g>
    </g>
    <g id="Group_112">
     <path id="Path_82" d="m77.69385,36.43817a4.879,4.879 0 0 0 -5.30005,-2.16211a4.04,4.04 0 0 0 -3.2229,4.1001c-0.02515,1.18677 0.03394,1.69995 0.50903,1.67896s0.06787,-0.98413 0.45801,-2.41699a3.357,3.357 0 0 1 2.57788,-2.78223a3.742,3.742 0 0 1 3.82715,0.99023c1.19995,1.13599 1.41382,2.63281 2,2.6499c0.27783,0.00903 -0.36621,-1.40088 -0.84912,-2.05786z" fill="#032d26"/>
    </g>
    <g id="Group_113">
     <ellipse id="Ellipse_29" cx="73.859" cy="38.27903" rx="0.636" ry="0.827" transform="rotate(-15.846 73.223 37.452)" fill="#076855"/>
    </g>
   </g>
   <g id="Group_116" opacity="0.19">
    <g id="Group_115">
     <path id="Path_83" d="m76.11597,52.46106l0,0zm0,0l0,0zm0,0z" fill="#ff4851"/>
    </g>
   </g>
   <g id="Group_117">
    <path id="Path_84" d="m53.56689,37.40601a2.028,2.028 0 0 1 -1.00708,-0.6001c-0.28687,-0.41382 -0.88989,0.09497 -0.3999,0.6001a2,2 0 0 0 1.32788,0.47388l0.0791,-0.47388z" fill="#032d26"/>
   </g>
   <g id="Group_118">
    <path id="Path_85" d="m77.62598,36.51501a2.026,2.026 0 0 0 1.00708,-0.59985c0.28687,-0.41406 0.89088,0.09497 0.3999,0.59985a2,2 0 0 1 -1.32788,0.47412l-0.0791,-0.47412z" fill="#032d26"/>
   </g>
   <g id="Group_121">
    <path id="Path_86" d="m56.62695,53.41614c-0.32007,-1.43604 1.71289,-3.28198 5.6001,-2.40015s4.83594,-0.11768 6.43286,0.65112s1.01099,3.34302 -2.21803,3.22314s-9.25195,1.05273 -9.81494,-1.47412l0,0.00001z" fill="#682d0c"/>
    <g id="Group_120" clip-path="url(#clip-path-10)">
     <g id="Group_119">
      <path id="Path_87" d="m57.52295,50.78918s1.552,1.67285 5.12305,1.85083s6.12793,-0.4209 7.05591,-1.04199l-1.66699,-1.01978l-10.09204,-0.64307l-0.41992,0.854l-0.00001,0.00001z" fill="#fff"/>
     </g>
    </g>
   </g>
   <g id="Group_128">
    <g id="Group_122">
     <path id="Path_89" d="m49.08301,80.74475l1.23999,-1.17578s4.65991,-1.35303 6.0791,4.94629l-9.89209,3.59277l2.573,-7.36328z" fill="#7abcaf"/>
    </g>
    <g id="Group_126">
     <path id="Path_90" d="m78.67907,136.55821c-2.67505,0.8916 -35.40002,11.91016 -36.39502,9.91357c-0.54297,-1.08595 -1.78699,-3.86865 -3.42395,-7.61476c-1.73901,-3.97899 -3.92297,-9.04492 -6.18201,-14.31689l-0.72901,-1.7002c-5.88599,-13.74757 -12.021,-28.25586 -12.021,-28.25586s12.71204,-4.5 23.69995,-8c7.82104,-2.49414 14.76599,-4.48389 15.625,-3.98486c0.99402,0.57715 5.76099,13.01416 10.328,25.7998c1.745,4.88281 3.46106,9.81836 4.92406,14.16309c2.66992,7.92382 4.50891,13.88476 4.17395,13.99609l0.00002,0.00002z" fill="#56aaff"/>
     <g id="Group_125" clip-path="url(#clip-path-11)">
      <g id="Group_123">
       <path id="Path_91" d="m25.703,112.57092l31.42395,-11.03809s-6.66797,-7.34473 -5.33899,-12.67676s4.35901,-5.29102 4.35901,-5.29102l-32.57202,10.42677s-1.776,8.14745 2.12805,18.57909l0,0.00002z" fill="#aaaaff"/>
      </g>
      <g id="Group_124">
       <path id="Path_92" d="m37.599,138.7533l38.9458,-17.28223l-2.66089,-6.83008l-40.09998,19.78319l3.81506,4.3291l0.00001,0.00002z" fill="#178e5b"/>
      </g>
     </g>
    </g>
    <g id="Group_127">
     <path id="Path_94" d="m47.81104,84.96021c-0.66101,7.06982 3.97498,15.4995 3.97498,15.4995l-27.41296,9.51514s-5.85498,-15.03662 0,-21.0918l25.94897,-9.31493s-2.12708,1.28075 -2.51099,5.39209z" fill="#fefefe"/>
    </g>
   </g>
   <g id="Group_131">
    <path id="Path_95" d="m79.98303,116.6842c-1.521,2.05518 -4.17798,4.03468 -9.91797,6.25977a204.039,204.039 0 0 0 -27.427,12.2002q-4.34497,2.38478 -8.21399,4.1001c-16.84705,7.48097 -26.91406,5.79199 -30.37598,-0.89989c-2.84412,-5.50049 1.80896,-16.53613 4.71997,-22.42921c3.87903,4.47168 9.92395,6.21094 14.16199,6.88721l-1.60803,4.28271s2.80701,-0.87012 6.92004,-2.15723c10.57898,-3.31152 29.79993,-9.3877 32.09998,-10.5376c1.375,-0.68848 3,-3.00635 4.79993,-5.6001c2.38611,-3.43115 3.77406,-5.8999 6.91309,-6.2002c7.3999,-0.71582 10.68188,10.375 7.92798,14.09424l-0.00001,0z" fill="#f4c990"/>
    <g id="Group_130" clip-path="url(#clip-path-12)">
     <g id="Group_129">
      <path id="Path_96" d="m19.74902,120.58423c-0.06604,0.45215 -5.05701,10.04297 0.06702,8.93994s40.52197,-15.14111 40.52197,-15.14111l-6.65405,0.26611l-29.40894,10.646l0.46594,-4.06837l-4.99194,-0.64258z" fill="#f4b07d"/>
     </g>
    </g>
   </g>
   <g id="Group_134">
    <g id="Group_132">
     <path id="Path_98" d="m43.21094,12.44904l-2.3999,-8.25s24.33081,-9.448 36.7168,0l-3.44189,8.25s-5.85913,7.18604 -30.875,0l-0.00001,0z" fill="#fefefe"/>
    </g>
    <g id="Group_133">
     <path id="Path_99" d="m67.06299,10.53497l0,1.74097a0.792,0.792 0 0 1 -0.79198,0.79199l-1.32397,0a0.792,0.792 0 0 1 -0.79199,-0.79199l0,-1.73193a0.792,0.792 0 0 0 -0.79199,-0.79199l-1.73804,0a0.792,0.792 0 0 1 -0.79199,-0.79199l0,-1.33105a0.792,0.792 0 0 1 0.79199,-0.79199l1.73291,0a0.792,0.792 0 0 0 0.79199,-0.79199l0,-1.73608a0.791,0.791 0 0 1 0.79102,-0.79199l1.32715,0a0.792,0.792 0 0 1 0.79198,0.79199l0,1.73096a0.791,0.791 0 0 0 0.79199,0.79199l1.73682,0a0.792,0.792 0 0 1 0.79224,0.79224l0,1.3269a0.792,0.792 0 0 1 -0.79224,0.79199l-1.73486,0a0.791,0.791 0 0 0 -0.79102,0.79199l-0.00002,-0.00002z" fill="#ff0000"/>
    </g>
   </g>
  </g>
  <path fill="none" stroke="#000" stroke-width="1.5" id="svg_1" d="m-159.32234,-11.39549c0,0.50001 1.08656,0.92638 1.50003,1.50003c0.65373,0.90701 1.00002,1.00002 3.00005,3.00005c0,0 0.50003,0.50001 1.00003,1.00002c0.50002,0.50001 0.64647,1.14647 1.00003,1.50003c0.35355,0.35355 0.5,0.50001 1.00002,1.00002c0,0 0,0.50001 0.5,1.00002c0.50002,0.50001 0.93884,1.53303 1.50003,2.50004c0.90488,1.55926 1.3463,2.59305 2.00003,3.50006c0.41347,0.57365 0.50002,1.50003 1.00002,2.50004c0.50003,1.00002 0.50003,1.50002 1.00003,2.50004c0.5,1.00001 0.74673,1.93931 1.00002,3.50006c0.08009,0.49355 0.5,2.50004 1.00003,4.00007c0.5,1.50002 0.74812,2.95394 1.00002,5.00009c0.30547,2.48131 0.74812,4.95398 1.00002,7.00012c0.24437,1.98505 0,4.50008 0,5.5001c0,2.00004 0,4.00007 0,5.5001c0,1.00002 0,2.00003 0,2.50004c0,0.50001 0,1.00002 -0.5,1.00002l-1.50003,0.50001"/>
  <line fill="#74dab3" stroke-width="1.5" x1="-145.3221" y1="-2.89534" x2="-144.82209" y2="-2.89534" id="svg_2" stroke-linejoin="undefined" stroke-linecap="undefined"/>
  <path fill="#74dab3" stroke-width="1.5" opacity="0.5" d="m85.68195,84.60619c0,0 -11.00021,1.00002 -11.00021,1.00002" id="svg_3"/>
  <path fill="#74dab3" stroke-width="1.5" opacity="0.5" d="m221.18433,71.60596l3.31961,-2.10474" id="svg_4"/>
 </g>
</svg>